<svg xmlns:xlink="http://www.w3.org/1999/xlink" xmlns="http://www.w3.org/2000/svg" width="314.6875" height="314.6875" viewBox="0 0 320.3125 320.3125" class="css-1j8o68f"><defs id="SvgjsDefs1001"></defs><g id="SvgjsG1007" featurekey="rootContainer" transform="matrix(6.388362662527864,0,0,6.388362662527864,0,0.06386311683529698)" fill="#8bd3dd"><path xmlns="http://www.w3.org/2000/svg" d="M25.07 50.13a25.07 25.07 0 1 1 25.07-25.07 25.09 25.09 0 0 1-25.07 25.07zm0-49.24a24.17 24.17 0 1 0 24.17 24.17A24.2 24.2 0 0 0 25.07.89z" fill="#8bd3dd"></path><path xmlns="http://www.w3.org/2000/svg" d="M46.6 25.06a21.52 21.52 0 0 0-9-17.47l-.21.29a21.15 21.15 0 0 1 0 34.37l.21.29a21.52 21.52 0 0 0 9-17.48zM3.89 25.06a21.16 21.16 0 0 1 8.83-17.19l-.21-.29a21.5 21.5 0 0 0 0 35l.21-.29a21.16 21.16 0 0 1-8.83-17.23z" fill="#f582ae"></path></g><g id="SvgjsG1008" featurekey="nameFeature-0" transform="matrix(1.689189058572739,0,0,1.689189058572739,59.648651652827006,101.72973129712713)" fill="#001858"><path d="M0.8 40 c1.8 -3.28 2.96 -8.32 2.96 -14 s-1.16 -10.72 -2.96 -14 l15.6 0 c1.84 3.72 2.8 7.52 2.8 10.88 c0 4.52 -1.88 8.32 -5.32 9.76 c2.68 1.56 4.6 4.24 5.32 7.36 l-8.56 0 c0.4 -0.68 0.72 -2 0.72 -3.16 c0 -1.76 -0.88 -3.52 -3.28 -3.84 c0.12 2.76 0.64 5.28 1.28 7 l-8.56 0 z M7.96 30.96 l0.76 0 c2.12 0 2.8 -1 2.8 -2.28 c0 -1.04 -0.64 -1.88 -1.52 -1.88 c-1.32 0 -2 1.96 -2.04 4.16 z M20.8 40 c1.8 -3.28 2.96 -8.32 2.96 -14 s-1.16 -10.72 -2.96 -14 l18.4 0 c-1.8 3.28 -2.96 8.32 -2.96 14 c0 1.24 0.04 2.48 0.12 3.64 l-5 0 s0.16 -0.36 0.16 -0.96 c0 -1.04 -0.64 -1.88 -1.52 -1.88 c-1.28 0 -2 1.84 -2.04 4.16 l2.04 0 l0 2.04 l-1.88 0 c0.28 1.52 0.92 2.56 1.88 2.56 c0.88 0 1.52 -0.8 1.52 -1.88 c0 -0.36 -0.08 -0.68 -0.08 -0.68 l5.44 0 c0.4 2.36 1.12 4.72 2.32 7 l-18.4 0 z M40.8 12 l11.36 0 c-0.96 2.92 -2.2 10.28 -2.2 14.48 c0 1.8 0.24 3 0.8 3 c0.88 0 1 -2.68 1 -2.68 l2.08 0 s0.12 2.68 1 2.68 c0.56 0 0.8 -1.2 0.8 -3 c0 -4.2 -1.24 -11.56 -2.2 -14.48 l11.36 0 c-2.48 4.72 -4.08 11.08 -4.08 17.2 c0 4.56 0.96 8.12 2.08 10.8 l-9.36 0 c0.32 -1.12 0.48 -2.24 0.48 -3.32 c0 -1.6 -0.36 -3.16 -1.12 -4.44 c-0.76 1.28 -1.12 2.84 -1.12 4.44 c0 1.08 0.16 2.2 0.48 3.32 l-9.36 0 c1.12 -2.68 2.08 -6.24 2.08 -10.8 c0 -6.12 -1.6 -12.48 -4.08 -17.2 z M66.39999999999999 12 l12 0 c-1.8 3.28 -2.96 8.32 -2.96 14 s1.16 10.72 2.96 14 l-12 0 c1.8 -3.28 2.96 -8.32 2.96 -14 s-1.16 -10.72 -2.96 -14 z M79.99999999999999 40 c1.8 -3.28 2.96 -8.32 2.96 -14 s-1.16 -10.72 -2.96 -14 l10.96 0 c-0.52 6.84 -0.08 14.8 1.28 18.04 c0.44 -4.04 0.88 -12.08 0 -18.04 l6.96 0 c-1.8 3.28 -2.96 8.32 -2.96 14 s1.16 10.72 2.96 14 l-10.96 0 c0 -5.88 -1.28 -9.04 -1.28 -9.04 c-0.64 3.56 -0.4 7.16 0 9.04 l-6.96 0 z M100.79999999999998 40 c1.8 -3.28 2.96 -8.32 2.96 -14 s-1.16 -10.72 -2.96 -14 l15.44 0 c1.8 3.28 2.96 8.32 2.96 14 s-1.16 10.72 -2.96 14 l-15.44 0 z M107.87999999999998 31.16 c0 2.44 0.8 4.4 2.12 4.4 s2.12 -1.96 2.12 -4.4 c0 -2.4 -0.8 -4.36 -2.12 -4.36 s-2.12 1.96 -2.12 4.36 z" fill="#001858"></path></g><g id="SvgjsG1009" featurekey="sloganFeature-0" transform="matrix(1,0,0,1,56.600000858306885,178.00000047683716)" fill="#8bd3dd"><path d="M1.4 6 l2.6 0 l0 5.8 l5.2 0 l0 -5.8 l2.6 0 l0 14 l-2.6 0 l0 -6 l-5.2 0 l0 6 l-2.6 0 l0 -14 z M14.600000000000001 20 l0 -14 l9.6 0 l0 1.5 l-0.7 0.7 l-6.3 0 l0 3.6 l5.1 0 l0 2.2 l-5.1 0 l0 3.8 l7 0 l0 2.2 l-9.6 0 z M36.3 11.7 c0 2.5 -2.3 2.9 -2.3 2.9 l2.7 4.3 l0 1.1 l-2.6 0 l-2.7 -5.2 l-2.8 0 l0 5.2 l-2.6 0 l0 -14 l7 0 c2 0 3.3 1.3 3.3 3.1 l0 2.6 z M28.6 8.2 l0 4.4 l3.7 0 c0.8 0 1.4 -0.6 1.4 -1.3 l0 -1.8 c0 -0.7 -0.6 -1.3 -1.4 -1.3 l-3.7 0 z M38.7 20 l0 -14 l9.6 0 l0 1.5 l-0.7 0.7 l-6.3 0 l0 3.6 l5.1 0 l0 2.2 l-5.1 0 l0 3.8 l7 0 l0 2.2 l-9.6 0 z M61.7 6 l4.3 12.9 l0 1.1 l-2.6 0 l-0.9 -3 l-5 0 l-0.9 3 l-2.6 0 l0 -1.1 l4.3 -12.9 l3.4 0 z M59.900000000000006 8.8 l-1.8 6 l3.8 0 l-1.8 -6 l-0.2 0 z M75.6 15.6 l0.2 0 l-0.3 -3.6 l0 -6 l2.6 0 l0 14 l-2.7 0 l-5.2 -9.6 l-0.2 0 l0.3 3.6 l0 6 l-2.6 0 l0 -14 l2.7 0 z M80.9 20 l0 -14 l7.1 0 c2 0 3.3 1.3 3.3 3.1 l0 7.8 c0 1.8 -1.3 3.1 -3.3 3.1 l-7.1 0 z M88.7 16.5 l0 -7 c0 -0.7 -0.6 -1.3 -1.4 -1.3 l-3.8 0 l0 9.6 l3.8 0 c0.8 0 1.4 -0.6 1.4 -1.3 z M105 13.9 l-3.7 0 l0 3.9 l3.7 0 c1 0 1.6 -0.6 1.6 -1.4 l0 -1.1 c0 -0.8 -0.6 -1.4 -1.6 -1.4 z M106.8 12.5 l0 0.2 s2.4 0.3 2.4 2.9 l0 1.4 c0 1.6 -1.4 3 -3.4 3 l-7.1 0 l0 -14 l6.5 0 c2 0 3.4 1.4 3.4 3 l0 1.3 c0 1.7 -1.8 2.2 -1.8 2.2 z M104.39999999999999 8.2 l-3.1 0 l0 3.5 l3.1 0 c1 0 1.6 -0.6 1.6 -1.4 l0 -0.7 c0 -0.8 -0.6 -1.4 -1.6 -1.4 z M117.89999999999999 6 l4.3 12.9 l0 1.1 l-2.6 0 l-0.9 -3 l-5 0 l-0.9 3 l-2.6 0 l0 -1.1 l4.3 -12.9 l3.4 0 z M116.1 8.8 l-1.8 6 l3.8 0 l-1.8 -6 l-0.2 0 z M126.09999999999998 9.5 l0 7 c0 0.7 0.6 1.3 1.4 1.3 l5.8 0 l0 2.2 l-6.5 0 c-2 0 -3.3 -1.3 -3.3 -3.1 l0 -7.8 c0 -1.8 1.3 -3.1 3.3 -3.1 l6.5 0 l0 1.5 l-0.7 0.7 l-5.1 0 c-0.8 0 -1.4 0.6 -1.4 1.3 z M137.7 6 l0 5.8 l2.5 0 l2.7 -5.8 l2.6 0 l0 1.1 l-3.2 5.8 l3.4 6 l0 1.1 l-2.6 0 l-2.9 -6 l-2.5 0 l0 6 l-2.6 0 l0 -14 l2.6 0 z M159.1 6 l4.3 12.9 l0 1.1 l-2.6 0 l-0.9 -3 l-5 0 l-0.9 3 l-2.6 0 l0 -1.1 l4.3 -12.9 l3.4 0 z M157.29999999999998 8.8 l-1.8 6 l3.8 0 l-1.8 -6 l-0.2 0 z M167.29999999999998 9.5 l0 7 c0 0.7 0.6 1.3 1.4 1.3 l3.7 0 l0 -5.5 l2.6 0 l0 7.7 l-7 0 c-2 0 -3.3 -1.3 -3.3 -3.1 l0 -7.8 c0 -1.8 1.3 -3.1 3.3 -3.1 l6.5 0 l0 1.5 l-0.7 0.7 l-5.1 0 c-0.8 0 -1.4 0.6 -1.4 1.3 z M184.2 6 l4.3 12.9 l0 1.1 l-2.6 0 l-0.9 -3 l-5 0 l-0.9 3 l-2.6 0 l0 -1.1 l4.3 -12.9 l3.4 0 z M182.39999999999998 8.8 l-1.8 6 l3.8 0 l-1.8 -6 l-0.2 0 z M192.79999999999998 20 l-2.6 0 l0 -14 l2.6 0 l0 14 z M203.5 15.6 l0.2 0 l-0.3 -3.6 l0 -6 l2.6 0 l0 14 l-2.7 0 l-5.2 -9.6 l-0.2 0 l0.3 3.6 l0 6 l-2.6 0 l0 -14 l2.7 0 z" fill="#8bd3dd"></path></g></svg>